<?xml version="1.0" encoding="UTF-8"?>
<svg width="120" height="120" viewBox="0 0 120 120" xmlns="http://www.w3.org/2000/svg">
  <!-- Personagem de ajuda - cabeça redonda amigável -->
  <defs>
    <radialGradient id="faceGradient" cx="50%" cy="50%" r="50%" fx="50%" fy="50%">
      <stop offset="0%" stop-color="#FFD580" />
      <stop offset="100%" stop-color="#FFA500" />
    </radialGradient>
  </defs>
  
  <!-- Cabeça -->
  <circle cx="60" cy="60" r="40" fill="url(#faceGradient)" />
  
  <!-- Olhos -->
  <circle cx="45" cy="50" r="6" fill="#FFFFFF" />
  <circle cx="75" cy="50" r="6" fill="#FFFFFF" />
  <circle cx="45" cy="50" r="3" fill="#333333" />
  <circle cx="75" cy="50" r="3" fill="#333333" />
  <circle cx="46" cy="48" r="1" fill="#FFFFFF" />
  <circle cx="76" cy="48" r="1" fill="#FFFFFF" />
  
  <!-- Sobrancelhas expressivas -->
  <path d="M38 42 Q45 38 52 42" stroke="#333333" stroke-width="2" fill="none" />
  <path d="M68 42 Q75 38 82 42" stroke="#333333" stroke-width="2" fill="none" />
  
  <!-- Sorriso -->
  <path d="M40 70 Q60 85 80 70" stroke="#333333" stroke-width="3" fill="none" stroke-linecap="round" />
  
  <!-- Bochechas coradas -->
  <circle cx="40" cy="60" r="5" fill="#FF9999" opacity="0.5" />
  <circle cx="80" cy="60" r="5" fill="#FF9999" opacity="0.5" />
  
  <!-- Bolhas de pensamento -->
  <circle cx="95" cy="30" r="6" fill="#FFFFFF" stroke="#333333" stroke-width="1" />
  <circle cx="110" cy="20" r="4" fill="#FFFFFF" stroke="#333333" stroke-width="1" />
  <circle cx="120" cy="12" r="2" fill="#FFFFFF" stroke="#333333" stroke-width="1" />
  
  <!-- Nome do personagem -->
  <text x="60" y="115" font-family="Arial, sans-serif" font-size="12" text-anchor="middle" fill="#333333">Ajudante</text>
</svg>